<svg width="51" height="51" viewBox="0 0 51 51" fill="none" xmlns="http://www.w3.org/2000/svg">
<g id="Frame 1618873107">
<g clip-path="url(#clip0_959_68836)">
<circle id="Ellipse 3199" cx="25.5723" cy="25.6611" r="25" fill="white" fill-opacity="0.1"/>
<path id="Vector" d="M26.1212 15.3672V30.381C26.1212 32.4447 24.4742 33.5111 23.2922 33.5111C22.4016 33.5111 20.3783 32.7523 20.3783 30.3578C20.3783 27.8449 22.2684 27.2046 23.3156 27.2046C23.9245 27.2046 24.163 27.3458 24.163 27.3458V23.3406C24.163 23.3406 23.7059 23.2665 23.1839 23.2665C19.4334 23.2665 16.7656 26.5742 16.7656 30.3578C16.7656 33.5548 19.0599 37.426 23.2497 37.426C27.7125 37.426 29.7551 33.3681 29.7551 30.381V22.9331C29.7551 22.9331 31.7453 24.4519 34.4127 24.4519V20.6573C31.3538 20.4191 29.7174 18.1789 29.6043 15.3672H26.1212Z" fill="white"/>
</g>
</g>
<defs>
<clipPath id="clip0_959_68836">
<rect x="0.572266" y="0.661133" width="50" height="50" rx="25" fill="white"/>
</clipPath>
</defs>
</svg>
