<svg width="50" height="51" viewBox="0 0 50 51" fill="none" xmlns="http://www.w3.org/2000/svg">
<g id="Frame 1618873076">
<g clip-path="url(#clip0_959_68830)">
<circle id="Ellipse 3199" cx="25" cy="25.6611" r="25" fill="white" fill-opacity="0.1"/>
<path id="Vector" fill-rule="evenodd" clip-rule="evenodd" d="M25.1039 13.985C25.1039 14.0337 24.949 14.0735 24.7596 14.0735C24.5702 14.0735 24.0289 14.153 23.5566 14.2502C19.6948 15.0448 16.4842 17.472 14.7906 20.8773C13.512 23.4485 13.2884 26.6915 14.2039 29.3908C14.7578 31.0245 15.6129 32.4318 16.8263 33.7069L17.58 34.4988V37.433V40.3671L17.8235 40.199C17.9573 40.1065 18.4851 39.7811 18.9963 39.4758C19.5075 39.1706 20.5516 38.545 21.3166 38.0857L22.7076 37.2505L23.6104 37.4346C26.5818 38.0406 29.8789 37.5302 32.5247 36.0547C34.0759 35.1896 35.7401 33.6509 36.7087 32.186C38.049 30.1594 38.6457 28.1874 38.6465 25.7824C38.6475 22.7322 37.4617 19.9501 35.2014 17.6999C34.0865 16.5897 32.8585 15.7405 31.4778 15.1244C30.3697 14.63 28.7238 14.173 27.7841 14.0988C27.4325 14.071 27.166 14.0142 27.1918 13.9724C27.2176 13.9307 26.7583 13.8965 26.1713 13.8965C25.5187 13.8965 25.1039 13.9309 25.1039 13.985ZM28.202 22.8363C28.0327 23.0055 28.0249 23.1313 28.0249 25.6962C28.0249 28.2739 28.032 28.3868 28.2054 28.5729C28.3918 28.773 28.5431 28.8033 28.8915 28.7099C29.3162 28.5961 29.3527 28.3519 29.3527 25.6248V23.0937L29.1354 22.8765C28.8672 22.6083 28.448 22.5902 28.202 22.8363ZM19.0848 23.1632C18.7444 23.2849 18.629 23.7252 18.8561 24.0364C18.966 24.1871 19.1253 24.2137 20.1472 24.2525L21.3128 24.2967L20.979 24.7393C20.7953 24.9827 20.2669 25.6555 19.8047 26.2344C18.585 27.7622 18.4285 28.143 18.8755 28.4946C19.0952 28.6675 19.2202 28.6781 21.0304 28.6781C22.7796 28.6781 22.9653 28.6636 23.0986 28.5162C23.3037 28.2896 23.2843 27.8559 23.0601 27.6529C22.8996 27.5078 22.7203 27.4842 21.7102 27.4761C21.064 27.4708 20.5537 27.4309 20.5643 27.3863C20.5747 27.3423 21.0966 26.6489 21.724 25.8457C23.256 23.8843 23.3368 23.7165 22.9392 23.3191C22.7227 23.1025 22.7164 23.1018 20.9698 23.1088C20.0061 23.1126 19.1578 23.1371 19.0848 23.1632ZM24.6659 24.4445C24.1795 24.5841 23.6192 25.0401 23.4146 25.463C22.966 26.3896 23.144 27.6424 23.816 28.2882C24.4134 28.8622 25.1514 28.9951 25.8309 28.6512C26.2216 28.4534 26.2397 28.452 26.431 28.6069C26.7041 28.8279 27.0194 28.8065 27.2765 28.5493C27.4923 28.3336 27.4938 28.3202 27.4938 26.6119C27.4938 25.0631 27.4774 24.8713 27.3282 24.6871C27.1315 24.4443 26.5948 24.4055 26.3815 24.6187C26.259 24.7411 26.2044 24.7341 25.8367 24.5479C25.4002 24.3269 25.152 24.305 24.6659 24.4445ZM30.9009 24.5946C29.6264 25.1735 29.3045 27.2137 30.3263 28.2355C30.6842 28.5934 31.3385 28.8551 31.8754 28.8551C32.3218 28.8551 33.0037 28.6104 33.3063 28.3415C33.8027 27.9003 34.0001 27.4025 33.9974 26.598C33.9955 26.0445 33.9528 25.8103 33.8021 25.5249C33.5843 25.1129 33.1637 24.7259 32.7412 24.5488C32.3263 24.375 31.3298 24.3997 30.9009 24.5946ZM24.8343 25.8236C24.5184 26.1057 24.3979 26.6626 24.5651 27.0664C24.674 27.3291 25.0707 27.6159 25.3252 27.6159C25.5797 27.6159 25.9764 27.3291 26.0852 27.0665C26.2548 26.657 26.1402 26.0529 25.8447 25.7988C25.5114 25.5122 25.1736 25.5204 24.8343 25.8236ZM31.5142 25.6815C30.8831 25.9878 30.8862 27.222 31.5188 27.5102C31.8296 27.6518 31.9782 27.6436 32.2746 27.4686C32.5834 27.2861 32.7163 27.0071 32.7163 26.5408C32.7163 26.2508 32.6586 26.1243 32.4153 25.8811C32.106 25.5718 31.8548 25.5162 31.5142 25.6815Z" fill="white"/>
</g>
</g>
<defs>
<clipPath id="clip0_959_68830">
<rect y="0.661133" width="50" height="50" rx="25" fill="white"/>
</clipPath>
</defs>
</svg>
